<svg xmlns="http://www.w3.org/2000/svg" xmlns:xlink="http://www.w3.org/1999/xlink" fill="#154734" viewBox="0 0 1000 1000" xmlns:v="https://vecta.io/nano"><use xlink:href="#B"/><path d="M500 806.3c16.9 0 30.6-13.7 30.6-30.6V438.8c0-16.9-13.7-30.6-30.6-30.6s-30.6 13.7-30.6 30.6v336.9c0 16.9 13.7 30.6 30.6 30.6z"/><use xlink:href="#B" x="367.5"/><path d="M867.5 285.6h74.7s17.2-1.3 17.2-30.6v-30.6c0-67.5-54.9-122.5-122.5-122.5H710C696.3 49.2 648.8 10 591.9 10H408.1c-56.9 0-104.5 39.2-118.2 91.9H163.1c-67.6 0-122.5 55-122.5 122.5V255c0 29.9 17.2 30.6 17.2 30.6h74.7v581.9C132.5 935 187.4 990 255 990h490c67.6 0 122.5-55 122.5-122.5V285.6zM408.1 71.2h183.7c22.6 0 42.1 12.4 52.7 30.6H355.4c10.6-18.1 30.2-30.6 52.7-30.6zm398.2 796.3c0 33.8-27.5 61.2-61.3 61.2H255c-33.8 0-65.5-27.5-65.5-61.2l4.3-581.9h612.5v581.9zm30.6-704.4c33.8 0 61.3 27.5 61.3 61.3H101.9c0-33.8 27.5-61.3 61.3-61.3h673.7z"/><defs ><path id="B" d="M316.3 806.3c16.9 0 30.6-13.7 30.6-30.6V438.8c0-16.9-13.7-30.6-30.6-30.6s-30.6 13.7-30.6 30.6v336.9c-.1 16.9 13.6 30.6 30.6 30.6z"/></defs></svg>