<svg xmlns="http://www.w3.org/2000/svg" height="512" fill="#154734" width="512"  xmlns:v="https://vecta.io/nano"><path d="M392 64a87.115 87.115 0 0 0-31.683 5.878 126.93 126.93 0 0 1 19.08 39.994 8 8 0 1 1-15.422 4.256 112.016 112.016 0 0 0-187.237-49.244A103.994 103.994 0 0 1 224 152a8 8 0 0 1-16 0 88 88 0 1 0-105.771 86.206 8 8 0 0 1 6.281 6.5L134.761 400h48.647L176 296.001a8 8 0 0 1 15.971-.569h.008L199.449 400H248v-88a8 8 0 0 1 16 0v88h48.551l7.478-104.57A8 8 0 0 1 336 296c0 .192-.015.38-.029.569h.008L328.592 400h48.647l26.251-155.291a8 8 0 0 1 6.281-6.5A88.01 88.01 0 0 0 392 64zM136 416h240v64H136z"/></svg>