<svg xmlns="http://www.w3.org/2000/svg" fill="#154734" viewBox="0 0 1000 1000"  xmlns:v="https://vecta.io/nano"><path d="M200.19 11.58c-3.66 1.15-10.2 5.77-14.82 10.2-16.55 16.74-16.55 40.99.19 57.74 8.08 8.08 15.78 10.58 35.22 12.13l17.13 1.15.96 46.38c.96 51.58 4.23 73.71 15.2 104.69 18.28 52.35 44.46 86.41 111.81 146.26 46.58 41.18 58.52 54.46 68.52 75.44 6.54 13.67 6.93 15.4 6.93 34.64s-.39 20.98-6.93 34.64c-9.05 19.05-21.75 33.87-50.23 59.08-47.73 42.15-64.47 58.31-77.94 73.9-33.87 40.22-52.35 77.56-62.55 126.63-2.89 14.24-4.04 29.45-4.81 66.01l-1.15 47.73h-8.85c-27.91 0-43.11 7.31-51.38 24.44-4.43 8.66-5 11.93-4.04 20.98 1.35 13.09 7.89 23.67 19.05 30.99l8.08 5.39h598.9l8.08-5.39c11.16-7.31 17.71-17.9 19.05-30.99.96-9.04.39-12.32-4.04-20.98-8.27-17.13-23.48-24.44-51.38-24.44h-8.85l-1.15-47.73c-1.16-52.15-3.66-69.48-14.63-102-17.32-51.96-44.46-87.76-111.81-147.61-53.5-47.54-64.66-60.62-73.13-85.45-5.2-15.4-5.2-35.03.19-50.62 8.27-24.63 24.06-42.72 81.6-93.34 58.31-51.19 86.22-89.1 103.15-139.53 10.97-32.52 13.47-50.04 14.63-101.81l1.15-47.34 16.94-1.15c20.02-1.54 27.33-4.23 35.8-12.9 18.28-18.86 14.82-48.31-7.51-62.93l-8.08-5.39-296.37-.39c-185.73-.17-298.89.41-302.93 1.57zm528.28 127.21c-.96 40.8-1.54 49.27-5.77 66.97-8.27 35.03-19.05 58.89-38.49 85.64-16.74 23.09-30.02 36.76-70.82 73.33-44.84 39.84-57.93 53.5-70.05 72.94-13.86 22.32-17.32 34.45-17.32 62.55 0 21.17.58 25.79 5 37.72 10.39 28.48 28.29 50.23 74.48 90.64 66.97 58.31 94.3 93.15 109.89 140.1 10.39 31.37 11.93 42.72 13.09 92.76l1.15 46.77H271.01v-36.18c0-41.19 1.92-61.2 8.66-86.6 14.05-53.12 39.84-90.45 98.73-142.22 60.05-52.73 80.06-76.02 90.65-105.08 4.23-12.12 5-16.74 4.81-37.91 0-20.01-.58-26.17-4.23-36.18-10.39-29.06-28.87-51.77-74.86-91.99-77.56-67.74-102.38-102.96-117.4-166.28-4.04-17.51-4.81-26.37-5.77-66.97l-1.15-46.57h459.18l-1.16 46.56zm-432.44 75.63c0 3.46 12.7 34.45 18.48 45.03 15.97 29.06 34.06 49.27 84.49 94.3 51 45.42 65.24 61.39 79.48 89.68 7.12 14.24 9.82 23.86 12.7 45.03 2.31 17.52 5.58 22.53 12.12 18.29 2.5-1.54 4.04-6.93 5.77-19.44 6.74-50.23 22.9-72.94 100.84-141.64 51.38-45.23 73.52-73.9 88.34-114.7 3.27-8.66 5.77-16.17 5.77-16.55 0-.58-91.8-.96-204-.96l-203.99.96zm200.15 308.31c-12.32 4.43-8.85 23.67 4.23 23.67 8.47 0 14.43-11.35 9.62-18.47-1.35-1.92-9.05-6.74-10.39-6.35-.38-.01-1.92.57-3.46 1.15zm15.78 33.48c-10.2 3.85-9.82 19.44.58 22.13 11.36 2.89 20.02-7.89 13.86-17.32-3.47-5.38-8.47-6.92-14.44-4.81zm-35.79 26.95c-5.97 4.81-6.54 11.74-1.16 17.13 7.51 7.51 21.17 2.12 21.17-8.47 0-4.81-7.89-12.7-12.51-12.7-1.35 0-4.62 1.73-7.5 4.04zm35.79 38.49c-10.2 3.85-9.82 19.44.58 22.13 11.36 2.89 20.02-7.89 13.86-17.32-3.47-5.39-8.47-6.93-14.44-4.81zm-37.72 44.45c-1.73 2.31-3.08 5.58-3.08 7.31s1.35 5 3.08 7.31c4.43 6.54 15.97 5.2 20.01-2.12 2.5-4.62 2.5-5.77 0-10.58-4.04-7.11-15.58-8.46-20.01-1.92zm33.49 40.03c-2.12 2.12-3.85 5.58-3.85 7.7 0 4.62 8.08 13.47 12.12 13.47 5 0 12.89-7.89 12.89-12.7 0-5.97-6.35-12.32-12.51-12.32-2.69.01-6.54 1.74-8.65 3.85zm-48.88 32.53c-5 5.58-3.47 15.78 3.27 19.44 4.62 2.5 5.77 2.5 10.58 0 10.58-5.96 6.54-23.09-5.39-23.09-2.88-.01-6.73 1.72-8.46 3.65zm30.59 14.43c-12.7 6.35-192.45 133.17-192.45 135.87 0 2.5 23.86 2.89 203.04 2.89l203.04-2.89c0-1.54-34.64-26.94-79.1-57.74-74.48-51.58-78.71-54.85-73.33-56.2 10.39-2.12 13.86-10.97 7.51-18.86-7.7-9.43-23.29-1.92-20.78 10.01 1.15 5.39.96 5.39-13.47-4.42-16.17-10.77-25.22-13.08-34.46-8.66z"/></svg>