<svg xmlns="http://www.w3.org/2000/svg" fill="#7e7f7f" viewBox="0 0 512 512"  xmlns:v="https://vecta.io/nano"><path d="M507.054 314.027c-15.36-20.48-30.72-20.48-68.267-.853L365.4 358.4c-10.24 5.973-33.28 7.68-54.613 7.68 4.267-7.68 2.56-17.067-5.12-28.16-13.653-19.627-36.693-31.573-61.44-31.573h-33.28c-17.92 0-34.987-5.12-48.64-15.36-30.791-23.093-78.94 2.035-102.4 17.023v-17.876H.174V512h59.733v-25.6H170.84c17.067 0 34.987-1.707 52.053-2.56l110.933-17.067c4.267 0 8.533-.853 11.947-1.707 10.24-1.707 19.627-6.827 28.16-14.507l128.853-102.4c10.241-8.532 11.948-23.892 4.268-34.132zM42.84 494.933h-25.6V307.2h25.6v187.733zm449.707-157.866l-130.56 101.546c-5.973 5.12-11.947 8.533-18.773 9.387h-.853c-3.413.853-5.973.853-9.387.853l-112.64 17.067c-16.213 2.56-33.28 3.413-49.493 3.413H59.907v-140.8c20.48-14.507 68.267-41.813 92.16-23.04 16.213 11.947 37.547 18.773 58.88 18.773h33.28c19.627 0 37.547 8.533 48.64 25.6 3.413 5.12 4.267 10.24 3.413 11.947-2.56 4.267-12.8 5.973-23.893 6.827h-86.186c-26.453 0-42.667 12.8-42.667 34.133 0 5.12 3.413 8.533 8.533 8.533s8.533-3.413 8.533-8.533c0-4.267 0-17.067 25.6-17.067h91.308c40.107.853 77.653 0 97.28-10.24l73.387-45.227c35.84-17.92 39.253-13.653 46.08-3.413 1.705 2.561 1.705 7.681-1.708 10.241zM66.734 269.653c1.707 1.707 4.267 3.413 6.827 3.413h365.227c3.413 0 5.973-1.707 6.827-4.267l30.72-42.667c1.707-2.56 2.56-5.973.853-8.533s-4.267-4.267-7.68-4.267h-17.263c-4.35-101.584-85.953-183.187-187.537-187.537v-8.729h17.067c5.12 0 8.533-3.413 8.533-8.533S286.894 0 281.774 0h-51.2c-5.12 0-8.533 3.413-8.533 8.533s3.413 8.533 8.533 8.533h17.067v8.729c-101.584 4.35-183.187 85.953-187.537 187.537H42.84c-3.413 0-6.827 2.56-7.68 5.12s-.853 5.973.853 8.533l30.721 42.668zm189.44-226.986c96.427 0 174.933 75.947 179.2 170.667h-358.4c5.12-94.721 83.626-170.667 179.2-170.667zM68.44 230.4h384L434.52 256H77.827l-17.92-25.6h8.533zM256.174 59.733c-57.173 0-110.933 30.72-140.8 81.067-1.707 4.267-.853 9.387 3.413 11.947 1.707.853 2.56.853 4.267.853 3.413 0 5.973-1.707 7.68-4.267 25.6-44.373 74.24-72.533 125.44-72.533 5.12 0 8.533-3.413 8.533-8.533s-3.413-8.534-8.533-8.534z"/></svg>