<svg xmlns="http://www.w3.org/2000/svg" fill="#154734" viewBox="0 0 1000 1000"  xmlns:v="https://vecta.io/nano"><path d="M618.78 12.35C493.29 28.2 386.97 115.86 346.59 236.5c-21.98 65.69-21.47 144.41 1.28 211.62 9.2 26.84 29.14 64.66 45.49 86.39l15.85 21.22c1.79 2.55-10.74 16.61-52.4 58.27l-54.95 54.95-15.59-15.59c-17.38-17.38-25.81-19.68-38.34-10.48-4.09 2.81-56.48 54.44-116.29 114.76-71.31 71.31-110.92 113.22-114.5 120.12-7.92 16.1-9.2 30.67-4.09 48.3 3.83 12.78 7.16 17.64 25.3 35.78 18.15 18.15 23 21.47 35.78 25.3 16.87 4.86 32.2 3.83 45.75-2.81 4.34-2.3 60.83-56.49 125.24-120.64 135.72-135.72 127.79-123.96 101.47-150.03l-15.34-15.33 54.18-54.18 55.72-54.44c.77 0 10.22 6.9 21.47 15.08 84.6 63.39 201.14 82.3 301.08 48.82 183.51-61.6 275.77-267.09 199.36-444.21C905.04 75.22 763.44-5.8 618.78 12.35zm98.4 94.57c116.29 28.62 195.27 141.34 181.47 259.42-6.14 52.4-27.86 99.17-63.64 136.99-36.04 38.08-79.74 62.87-127.54 72.33-26.84 5.62-82.81 4.09-107.86-2.56-19.94-5.37-58.79-23-75.91-34.76-17.89-12.01-45.49-39.36-58.53-57.5-13.8-19.42-32.2-58.02-38.08-80.25-6.65-25.05-8.18-81.02-2.56-107.86 9.71-48.56 33.99-90.99 72.33-127.54 59.05-55.97 141.09-77.7 220.32-58.27zm-97.12 34.24c-62.62 13.04-114.25 52.91-141.85 109.9-13.04 26.32-19.17 50.61-19.94 76.16-.51 14.31.25 18.15 4.09 20.7 8.69 5.62 13.03-1.02 15.08-23 6.64-77.19 62.1-143.13 136.99-162.3 10.48-2.56 25.05-4.86 32.46-4.86 15.59 0 22.49-4.09 21.21-13.03-.77-5.62-2.04-6.13-16.1-6.65-8.42-.24-22.74 1.29-31.94 3.08z"/></svg>