<?xml version="1.0" encoding="utf-8"?>
<!-- Svg Vector Icons : http://www.onlinewebfonts.com/icon -->
<!DOCTYPE svg PUBLIC "-//W3C//DTD SVG 1.1//EN" "http://www.w3.org/Graphics/SVG/1.1/DTD/svg11.dtd">
<svg version="1.1" fill="#154734" xmlns="http://www.w3.org/2000/svg" xmlns:xlink="http://www.w3.org/1999/xlink" x="0px" y="0px" viewBox="0 0 1000 1000" enable-background="new 0 0 1000 1000" xml:space="preserve">
<metadata> Svg Vector Icons : http://www.onlinewebfonts.com/icon </metadata>
<g><g transform="translate(0.000000,511.000000) scale(0.100000,-0.100000)"><path d="M6187.8,4986.5C4932.9,4828,3869.7,3951.4,3465.9,2745c-219.8-656.9-214.7-1444.1,12.8-2116.2c92-268.4,291.4-646.6,454.9-863.9c74.1-97.1,143.1-191.7,158.5-212.2c17.9-25.5-107.4-166.1-524-582.7l-549.5-549.5l-155.9,155.9c-173.8,173.8-258.1,196.8-383.4,104.8c-40.9-28.1-564.8-544.4-1162.9-1147.6c-713.1-713.1-1109.2-1132.2-1145-1201.2c-79.2-161-92-306.7-40.9-483c38.3-127.8,71.6-176.4,253-357.8c181.5-181.5,230-214.7,357.8-253c168.7-48.6,322-38.3,457.5,28.1c43.4,23,608.3,564.9,1252.4,1206.4c1357.2,1357.2,1277.9,1239.6,1014.7,1500.3l-153.4,153.3l541.8,541.8c299,299,549.5,544.4,557.2,544.4c7.7,0,102.2-69,214.7-150.8c846-633.9,2011.4-823,3010.8-488.2c1835.1,616,2757.7,2670.9,1993.6,4442.1C9050.4,4357.8,7634.4,5168,6187.8,4986.5z M7171.8,4040.8c1162.9-286.2,1952.7-1413.4,1814.7-2594.2c-61.4-524-278.6-991.7-636.4-1369.9C7989.7-304.1,7552.7-552,7074.7-646.6c-268.4-56.2-828.1-40.9-1078.6,25.6c-199.4,53.7-587.9,230-759.1,347.6c-178.9,120.1-454.9,393.6-585.3,575c-138,194.2-322,580.2-380.8,802.5c-66.5,250.5-81.8,810.2-25.6,1078.6c97.1,485.6,339.9,909.9,723.3,1275.4C5559.1,4017.8,6379.5,4235.1,7171.8,4040.8z"/><path d="M6200.6,3698.4c-626.2-130.4-1142.5-529.1-1418.5-1099c-130.4-263.2-191.7-506.1-199.4-761.6c-5.1-143.1,2.5-181.5,40.9-207c86.9-56.2,130.3,10.2,150.8,230c66.4,771.9,621,1431.3,1369.9,1623c104.8,25.6,250.5,48.6,324.6,48.6c155.9,0,224.9,40.9,212.1,130.3c-7.7,56.2-20.4,61.3-161,66.5C6435.8,3731.6,6292.6,3716.3,6200.6,3698.4z"/></g></g>
</svg>